<?xml version="1.0" encoding="UTF-8"?>
<svg xmlns="http://www.w3.org/2000/svg" viewBox="0 0 790.77 237.92">
  <defs>
    <style>
      .cls-1 {
        fill: #fff;
        stroke-width: 0px;
      }
    </style>
  </defs>
  <g id="Layer_2" data-name="Layer 2">
    <path class="cls-1" d="M426.03,67.02c16.24,0,25.39,6.23,31.25,13.31l1.1-10.86h46.63v111.45c-.12,40.41-39.06,57.01-73.61,57.01-29.42,0-49.07-13.43-57.25-22.58l24.05-28.32c8.91,8.67,20.51,12.7,31.74,12.7,14.28,0,27.34-8.3,27.34-20.02v-3.91c-5.86,5.98-15.01,10.86-31.25,10.86-31.01,0-53.1-25.88-53.1-59.69s22.09-59.94,53.1-59.94ZM417.24,126.83c0,12.21,8.54,20.51,21,20.51s20.51-8.3,20.51-20.51-8.3-20.75-20.51-20.75-21,8.42-21,20.75Z"/>
    <path class="cls-1" d="M587.52,67.02c31.86,0,58.72,22.34,58.72,54.81,0,4.76-.61,9.77-1.83,15.01h-73.85c1.34,11.35,11.6,16.11,22.22,16.11,10.01,0,18.68-4.76,24.29-12.45l27.22,24.54c-5.74,9.16-25.63,24.05-54.08,24.05-37.23,0-63.48-25.27-63.48-61.28s24.66-60.79,60.79-60.79ZM570.56,115.6h33.08c0-7.57-6.84-14.4-15.99-14.4s-16.36,6.71-17.09,14.4Z"/>
    <path class="cls-1" d="M668.58,186.65v-117.19h42.72l1.1,11.23c6.59-8.06,19.65-13.67,36.38-13.67,24.9,0,41.99,16.6,41.99,41.02v78.61h-46.88v-64.7c0-8.3-5.86-14.04-14.28-14.04s-14.16,5.74-14.16,14.04v64.7h-46.88Z"/>
  </g>
  <g id="Layer_1" data-name="Layer 1">
    <path class="cls-1" d="M354.37,67.02c-13.79,0-26,6.35-31.49,18.43l-1.71-15.99h-42.72v31.86l39.82,26.45-39.82,22.61v36.28h46.88v-52.61c0-18.43,9.77-28.08,26.37-28.08,6.23,0,10.62,1.34,13.79,2.56l2.81-39.31c-4.88-1.46-9.64-2.2-13.92-2.2Z"/>
    <path class="cls-1" d="M85.92,116.09l36.4-20.66V20.87h-48.71v106.08c0,11.72-6.71,19.53-16.97,19.53-12.7,0-20.51-8.3-26-17.33L0,158.33c11.23,17.21,29.3,30.76,58.72,30.76,35.98,0,59.24-19.22,63.04-49.2l-35.84-23.8Z"/>
    <polygon class="cls-1" points="272.12 128.57 229.26 100.1 268.8 0 224.98 0 191.87 83.91 132.06 117.86 168.84 142.28 132.08 235.47 175.78 235.47 202.37 168.16 272.12 128.57"/>
  </g>
</svg>